<mxfile host="app.diagrams.net" agent="Mozilla/5.0 (Windows NT 10.0; Win64; x64) AppleWebKit/537.36 (KHTML, like Gecko) Chrome/128.0.0.0 Safari/537.36" version="24.7.16">
  <diagram name="Page-1" id="ydaQO2TbajEBXdz76eBc">
    <mxGraphModel dx="1062" dy="547" grid="1" gridSize="10" guides="1" tooltips="1" connect="1" arrows="1" fold="1" page="1" pageScale="1" pageWidth="850" pageHeight="1100" math="0" shadow="0">
      <root>
        <mxCell id="0" />
        <mxCell id="1" parent="0" />
        <mxCell id="ZrKw8f5aBbxwtbPbl8hn-1" value="LibSys" style="ellipse;whiteSpace=wrap;html=1;" vertex="1" parent="1">
          <mxGeometry x="30" y="360" width="120" height="80" as="geometry" />
        </mxCell>
        <mxCell id="ZrKw8f5aBbxwtbPbl8hn-2" value="" style="endArrow=none;html=1;rounded=0;exitX=1;exitY=0.5;exitDx=0;exitDy=0;" edge="1" parent="1" source="ZrKw8f5aBbxwtbPbl8hn-1">
          <mxGeometry width="50" height="50" relative="1" as="geometry">
            <mxPoint x="580" y="410" as="sourcePoint" />
            <mxPoint x="1030" y="400" as="targetPoint" />
          </mxGeometry>
        </mxCell>
        <mxCell id="ZrKw8f5aBbxwtbPbl8hn-3" value="" style="endArrow=none;html=1;rounded=0;entryX=0.5;entryY=1;entryDx=0;entryDy=0;" edge="1" parent="1" target="ZrKw8f5aBbxwtbPbl8hn-4">
          <mxGeometry width="50" height="50" relative="1" as="geometry">
            <mxPoint x="280" y="400" as="sourcePoint" />
            <mxPoint x="210" y="180" as="targetPoint" />
          </mxGeometry>
        </mxCell>
        <mxCell id="ZrKw8f5aBbxwtbPbl8hn-4" value="Books" style="rounded=0;whiteSpace=wrap;html=1;" vertex="1" parent="1">
          <mxGeometry x="110" y="20" width="120" height="60" as="geometry" />
        </mxCell>
        <mxCell id="ZrKw8f5aBbxwtbPbl8hn-6" value="" style="endArrow=none;html=1;rounded=0;" edge="1" parent="1">
          <mxGeometry width="50" height="50" relative="1" as="geometry">
            <mxPoint x="266" y="360" as="sourcePoint" />
            <mxPoint x="430" y="290" as="targetPoint" />
          </mxGeometry>
        </mxCell>
        <mxCell id="ZrKw8f5aBbxwtbPbl8hn-7" value="Search" style="edgeLabel;html=1;align=center;verticalAlign=middle;resizable=0;points=[];fontStyle=1;fontSize=12;" vertex="1" connectable="0" parent="ZrKw8f5aBbxwtbPbl8hn-6">
          <mxGeometry x="0.8105" y="-1" relative="1" as="geometry">
            <mxPoint x="21" y="-16" as="offset" />
          </mxGeometry>
        </mxCell>
        <mxCell id="ZrKw8f5aBbxwtbPbl8hn-8" value="" style="endArrow=none;html=1;rounded=0;" edge="1" parent="1" source="ZrKw8f5aBbxwtbPbl8hn-9">
          <mxGeometry width="50" height="50" relative="1" as="geometry">
            <mxPoint x="433" y="336" as="sourcePoint" />
            <mxPoint x="402" y="302" as="targetPoint" />
          </mxGeometry>
        </mxCell>
        <mxCell id="ZrKw8f5aBbxwtbPbl8hn-9" value="Title search" style="text;html=1;align=center;verticalAlign=middle;resizable=0;points=[];autosize=1;strokeColor=none;fillColor=none;fontSize=7;" vertex="1" parent="1">
          <mxGeometry x="405" y="333" width="60" height="20" as="geometry" />
        </mxCell>
        <mxCell id="ZrKw8f5aBbxwtbPbl8hn-10" value="" style="endArrow=none;html=1;rounded=0;" edge="1" parent="1" source="ZrKw8f5aBbxwtbPbl8hn-11">
          <mxGeometry width="50" height="50" relative="1" as="geometry">
            <mxPoint x="382" y="265" as="sourcePoint" />
            <mxPoint x="382" y="311" as="targetPoint" />
          </mxGeometry>
        </mxCell>
        <mxCell id="ZrKw8f5aBbxwtbPbl8hn-11" value="Author search" style="text;html=1;align=center;verticalAlign=middle;resizable=0;points=[];autosize=1;strokeColor=none;fillColor=none;fontSize=7;" vertex="1" parent="1">
          <mxGeometry x="340" y="245" width="70" height="20" as="geometry" />
        </mxCell>
        <mxCell id="ZrKw8f5aBbxwtbPbl8hn-12" value="" style="endArrow=none;html=1;rounded=0;" edge="1" parent="1" source="ZrKw8f5aBbxwtbPbl8hn-13">
          <mxGeometry width="50" height="50" relative="1" as="geometry">
            <mxPoint x="364" y="360" as="sourcePoint" />
            <mxPoint x="350" y="325" as="targetPoint" />
          </mxGeometry>
        </mxCell>
        <mxCell id="ZrKw8f5aBbxwtbPbl8hn-13" value="Keyword search" style="text;html=1;align=center;verticalAlign=middle;resizable=0;points=[];autosize=1;strokeColor=none;fillColor=none;fontSize=7;" vertex="1" parent="1">
          <mxGeometry x="335" y="355" width="70" height="20" as="geometry" />
        </mxCell>
        <mxCell id="ZrKw8f5aBbxwtbPbl8hn-14" value="" style="endArrow=none;html=1;rounded=0;" edge="1" parent="1" target="ZrKw8f5aBbxwtbPbl8hn-15">
          <mxGeometry width="50" height="50" relative="1" as="geometry">
            <mxPoint x="319" y="339" as="sourcePoint" />
            <mxPoint x="300" y="290" as="targetPoint" />
          </mxGeometry>
        </mxCell>
        <mxCell id="ZrKw8f5aBbxwtbPbl8hn-15" value="ISBN search" style="text;html=1;align=center;verticalAlign=middle;resizable=0;points=[];autosize=1;strokeColor=none;fillColor=none;fontSize=7;" vertex="1" parent="1">
          <mxGeometry x="270" y="273" width="60" height="20" as="geometry" />
        </mxCell>
        <mxCell id="ZrKw8f5aBbxwtbPbl8hn-16" value="" style="endArrow=none;html=1;rounded=0;" edge="1" parent="1" source="ZrKw8f5aBbxwtbPbl8hn-17">
          <mxGeometry width="50" height="50" relative="1" as="geometry">
            <mxPoint x="80" y="280" as="sourcePoint" />
            <mxPoint x="256" y="331" as="targetPoint" />
          </mxGeometry>
        </mxCell>
        <mxCell id="ZrKw8f5aBbxwtbPbl8hn-17" value="Borrow" style="text;html=1;align=center;verticalAlign=middle;resizable=0;points=[];autosize=1;strokeColor=none;fillColor=none;fontStyle=1" vertex="1" parent="1">
          <mxGeometry x="30" y="260" width="60" height="30" as="geometry" />
        </mxCell>
        <mxCell id="ZrKw8f5aBbxwtbPbl8hn-18" value="" style="endArrow=none;html=1;rounded=0;" edge="1" parent="1" source="ZrKw8f5aBbxwtbPbl8hn-23">
          <mxGeometry width="50" height="50" relative="1" as="geometry">
            <mxPoint x="140" y="332" as="sourcePoint" />
            <mxPoint x="221" y="321" as="targetPoint" />
          </mxGeometry>
        </mxCell>
        <mxCell id="ZrKw8f5aBbxwtbPbl8hn-19" value="" style="endArrow=none;html=1;rounded=0;" edge="1" parent="1" target="ZrKw8f5aBbxwtbPbl8hn-20">
          <mxGeometry width="50" height="50" relative="1" as="geometry">
            <mxPoint x="224" y="238" as="sourcePoint" />
            <mxPoint x="330" y="150" as="targetPoint" />
          </mxGeometry>
        </mxCell>
        <mxCell id="ZrKw8f5aBbxwtbPbl8hn-20" value="Return" style="text;html=1;align=center;verticalAlign=middle;resizable=0;points=[];autosize=1;strokeColor=none;fillColor=none;fontStyle=1" vertex="1" parent="1">
          <mxGeometry x="310" y="128" width="60" height="30" as="geometry" />
        </mxCell>
        <mxCell id="ZrKw8f5aBbxwtbPbl8hn-21" value="" style="endArrow=none;html=1;rounded=0;" edge="1" parent="1" source="ZrKw8f5aBbxwtbPbl8hn-22">
          <mxGeometry width="50" height="50" relative="1" as="geometry">
            <mxPoint x="70" y="130" as="sourcePoint" />
            <mxPoint x="200" y="170" as="targetPoint" />
          </mxGeometry>
        </mxCell>
        <mxCell id="ZrKw8f5aBbxwtbPbl8hn-22" value="Request" style="text;html=1;align=center;verticalAlign=middle;resizable=0;points=[];autosize=1;strokeColor=none;fillColor=none;fontStyle=1" vertex="1" parent="1">
          <mxGeometry x="25" y="108" width="70" height="30" as="geometry" />
        </mxCell>
        <mxCell id="ZrKw8f5aBbxwtbPbl8hn-23" value="Validate" style="text;html=1;align=center;verticalAlign=middle;resizable=0;points=[];autosize=1;strokeColor=none;fillColor=none;fontSize=7;" vertex="1" parent="1">
          <mxGeometry x="105" y="333" width="50" height="20" as="geometry" />
        </mxCell>
        <mxCell id="ZrKw8f5aBbxwtbPbl8hn-24" value="Pay fines" style="rounded=0;whiteSpace=wrap;html=1;" vertex="1" parent="1">
          <mxGeometry x="215" y="540" width="120" height="60" as="geometry" />
        </mxCell>
        <mxCell id="ZrKw8f5aBbxwtbPbl8hn-25" value="" style="endArrow=none;html=1;rounded=0;exitX=0.5;exitY=0;exitDx=0;exitDy=0;" edge="1" parent="1" source="ZrKw8f5aBbxwtbPbl8hn-24">
          <mxGeometry width="50" height="50" relative="1" as="geometry">
            <mxPoint x="190" y="490" as="sourcePoint" />
            <mxPoint x="360" y="400" as="targetPoint" />
          </mxGeometry>
        </mxCell>
        <mxCell id="ZrKw8f5aBbxwtbPbl8hn-26" value="" style="endArrow=none;html=1;rounded=0;" edge="1" parent="1">
          <mxGeometry width="50" height="50" relative="1" as="geometry">
            <mxPoint x="400" y="470" as="sourcePoint" />
            <mxPoint x="336" y="440" as="targetPoint" />
          </mxGeometry>
        </mxCell>
        <mxCell id="ZrKw8f5aBbxwtbPbl8hn-27" value="Send QR &lt;br style=&quot;font-size: 7px;&quot;&gt;online user" style="text;html=1;align=center;verticalAlign=middle;resizable=0;points=[];autosize=1;strokeColor=none;fillColor=none;fontSize=7;" vertex="1" parent="1">
          <mxGeometry x="380" y="470" width="60" height="30" as="geometry" />
        </mxCell>
        <mxCell id="ZrKw8f5aBbxwtbPbl8hn-28" value="" style="endArrow=none;html=1;rounded=0;" edge="1" parent="1">
          <mxGeometry width="50" height="50" relative="1" as="geometry">
            <mxPoint x="240" y="490" as="sourcePoint" />
            <mxPoint x="310" y="483" as="targetPoint" />
          </mxGeometry>
        </mxCell>
        <mxCell id="ZrKw8f5aBbxwtbPbl8hn-29" value="Pay on &lt;br style=&quot;font-size: 7px;&quot;&gt;cash" style="text;html=1;align=center;verticalAlign=middle;resizable=0;points=[];autosize=1;strokeColor=none;fillColor=none;fontSize=7;" vertex="1" parent="1">
          <mxGeometry x="195" y="473" width="50" height="30" as="geometry" />
        </mxCell>
        <mxCell id="ZrKw8f5aBbxwtbPbl8hn-31" value="Modify library" style="rounded=0;whiteSpace=wrap;html=1;" vertex="1" parent="1">
          <mxGeometry x="560" y="170" width="120" height="60" as="geometry" />
        </mxCell>
        <mxCell id="ZrKw8f5aBbxwtbPbl8hn-32" value="" style="endArrow=none;html=1;rounded=0;entryX=0.5;entryY=1;entryDx=0;entryDy=0;" edge="1" parent="1" target="ZrKw8f5aBbxwtbPbl8hn-31">
          <mxGeometry width="50" height="50" relative="1" as="geometry">
            <mxPoint x="570" y="400" as="sourcePoint" />
            <mxPoint x="670" y="290" as="targetPoint" />
          </mxGeometry>
        </mxCell>
        <mxCell id="ZrKw8f5aBbxwtbPbl8hn-33" value="" style="endArrow=none;html=1;rounded=0;" edge="1" parent="1" target="ZrKw8f5aBbxwtbPbl8hn-34">
          <mxGeometry width="50" height="50" relative="1" as="geometry">
            <mxPoint x="607" y="274" as="sourcePoint" />
            <mxPoint x="710" y="270" as="targetPoint" />
          </mxGeometry>
        </mxCell>
        <mxCell id="ZrKw8f5aBbxwtbPbl8hn-34" value="Remove &lt;br&gt;book" style="text;html=1;align=center;verticalAlign=middle;resizable=0;points=[];autosize=1;strokeColor=none;fillColor=none;fontStyle=1" vertex="1" parent="1">
          <mxGeometry x="700" y="245" width="70" height="40" as="geometry" />
        </mxCell>
        <mxCell id="ZrKw8f5aBbxwtbPbl8hn-35" value="" style="endArrow=none;html=1;rounded=0;" edge="1" parent="1" source="ZrKw8f5aBbxwtbPbl8hn-36">
          <mxGeometry width="50" height="50" relative="1" as="geometry">
            <mxPoint x="550" y="310" as="sourcePoint" />
            <mxPoint x="581" y="364" as="targetPoint" />
          </mxGeometry>
        </mxCell>
        <mxCell id="ZrKw8f5aBbxwtbPbl8hn-36" value="Add book" style="text;html=1;align=center;verticalAlign=middle;resizable=0;points=[];autosize=1;strokeColor=none;fillColor=none;fontStyle=1" vertex="1" parent="1">
          <mxGeometry x="500" y="268" width="70" height="30" as="geometry" />
        </mxCell>
        <mxCell id="ZrKw8f5aBbxwtbPbl8hn-38" value="Authenticate" style="rounded=0;whiteSpace=wrap;html=1;" vertex="1" parent="1">
          <mxGeometry x="570" y="670" width="120" height="60" as="geometry" />
        </mxCell>
        <mxCell id="ZrKw8f5aBbxwtbPbl8hn-39" value="" style="endArrow=none;html=1;rounded=0;exitX=0.5;exitY=0;exitDx=0;exitDy=0;" edge="1" parent="1" source="ZrKw8f5aBbxwtbPbl8hn-38">
          <mxGeometry width="50" height="50" relative="1" as="geometry">
            <mxPoint x="560" y="530" as="sourcePoint" />
            <mxPoint x="540" y="400" as="targetPoint" />
          </mxGeometry>
        </mxCell>
        <mxCell id="ZrKw8f5aBbxwtbPbl8hn-40" value="" style="endArrow=none;html=1;rounded=0;" edge="1" parent="1" target="ZrKw8f5aBbxwtbPbl8hn-45">
          <mxGeometry width="50" height="50" relative="1" as="geometry">
            <mxPoint x="565" y="478" as="sourcePoint" />
            <mxPoint x="600" y="439" as="targetPoint" />
          </mxGeometry>
        </mxCell>
        <mxCell id="ZrKw8f5aBbxwtbPbl8hn-42" value="Using&lt;br&gt;NFC chips" style="text;html=1;align=center;verticalAlign=middle;resizable=0;points=[];autosize=1;strokeColor=none;fillColor=none;fontStyle=1" vertex="1" parent="1">
          <mxGeometry x="460" y="620" width="80" height="40" as="geometry" />
        </mxCell>
        <mxCell id="ZrKw8f5aBbxwtbPbl8hn-43" value="" style="endArrow=none;html=1;rounded=0;" edge="1" parent="1" source="ZrKw8f5aBbxwtbPbl8hn-42">
          <mxGeometry width="50" height="50" relative="1" as="geometry">
            <mxPoint x="470" y="500" as="sourcePoint" />
            <mxPoint x="618" y="634" as="targetPoint" />
          </mxGeometry>
        </mxCell>
        <mxCell id="ZrKw8f5aBbxwtbPbl8hn-45" value="Login" style="text;html=1;align=center;verticalAlign=middle;resizable=0;points=[];autosize=1;strokeColor=none;fillColor=none;fontStyle=1" vertex="1" parent="1">
          <mxGeometry x="780" y="555" width="50" height="30" as="geometry" />
        </mxCell>
        <mxCell id="ZrKw8f5aBbxwtbPbl8hn-46" value="" style="endArrow=none;html=1;rounded=0;" edge="1" parent="1" target="ZrKw8f5aBbxwtbPbl8hn-47">
          <mxGeometry width="50" height="50" relative="1" as="geometry">
            <mxPoint x="600" y="490" as="sourcePoint" />
            <mxPoint x="680" y="450" as="targetPoint" />
          </mxGeometry>
        </mxCell>
        <mxCell id="ZrKw8f5aBbxwtbPbl8hn-47" value="Login" style="text;html=1;align=center;verticalAlign=middle;resizable=0;points=[];autosize=1;strokeColor=none;fillColor=none;fontSize=7;" vertex="1" parent="1">
          <mxGeometry x="655" y="455" width="40" height="20" as="geometry" />
        </mxCell>
        <mxCell id="ZrKw8f5aBbxwtbPbl8hn-48" value="Change &lt;br style=&quot;font-size: 7px;&quot;&gt;password" style="text;html=1;align=center;verticalAlign=middle;resizable=0;points=[];autosize=1;strokeColor=none;fillColor=none;fontSize=7;" vertex="1" parent="1">
          <mxGeometry x="630" y="545" width="50" height="30" as="geometry" />
        </mxCell>
        <mxCell id="ZrKw8f5aBbxwtbPbl8hn-49" value="Forget&lt;br style=&quot;font-size: 7px;&quot;&gt;password" style="text;html=1;align=center;verticalAlign=middle;resizable=0;points=[];autosize=1;strokeColor=none;fillColor=none;fontSize=7;" vertex="1" parent="1">
          <mxGeometry x="730" y="485" width="50" height="30" as="geometry" />
        </mxCell>
        <mxCell id="ZrKw8f5aBbxwtbPbl8hn-50" value="" style="endArrow=none;html=1;rounded=0;" edge="1" parent="1" source="ZrKw8f5aBbxwtbPbl8hn-48">
          <mxGeometry width="50" height="50" relative="1" as="geometry">
            <mxPoint x="610" y="570" as="sourcePoint" />
            <mxPoint x="626" y="502" as="targetPoint" />
          </mxGeometry>
        </mxCell>
        <mxCell id="ZrKw8f5aBbxwtbPbl8hn-51" value="" style="endArrow=none;html=1;rounded=0;" edge="1" parent="1" target="ZrKw8f5aBbxwtbPbl8hn-49">
          <mxGeometry width="50" height="50" relative="1" as="geometry">
            <mxPoint x="670" y="518" as="sourcePoint" />
            <mxPoint x="750" y="560" as="targetPoint" />
          </mxGeometry>
        </mxCell>
        <mxCell id="ZrKw8f5aBbxwtbPbl8hn-52" value="System" style="rounded=0;whiteSpace=wrap;html=1;" vertex="1" parent="1">
          <mxGeometry x="860" y="110" width="120" height="60" as="geometry" />
        </mxCell>
        <mxCell id="ZrKw8f5aBbxwtbPbl8hn-53" value="" style="endArrow=none;html=1;rounded=0;" edge="1" parent="1" target="ZrKw8f5aBbxwtbPbl8hn-52">
          <mxGeometry width="50" height="50" relative="1" as="geometry">
            <mxPoint x="840" y="400" as="sourcePoint" />
            <mxPoint x="970" y="320" as="targetPoint" />
          </mxGeometry>
        </mxCell>
        <mxCell id="ZrKw8f5aBbxwtbPbl8hn-56" style="rounded=0;orthogonalLoop=1;jettySize=auto;html=1;exitX=0;exitY=0.5;exitDx=0;exitDy=0;endArrow=none;endFill=0;" edge="1" parent="1" source="ZrKw8f5aBbxwtbPbl8hn-55">
          <mxGeometry relative="1" as="geometry">
            <mxPoint x="856" y="349" as="targetPoint" />
          </mxGeometry>
        </mxCell>
        <mxCell id="ZrKw8f5aBbxwtbPbl8hn-55" value="Update book status" style="text;html=1;align=center;verticalAlign=middle;whiteSpace=wrap;rounded=0;fontStyle=1" vertex="1" parent="1">
          <mxGeometry x="1110" y="215" width="80" height="30" as="geometry" />
        </mxCell>
        <mxCell id="ZrKw8f5aBbxwtbPbl8hn-58" style="rounded=0;orthogonalLoop=1;jettySize=auto;html=1;exitX=0.5;exitY=1;exitDx=0;exitDy=0;endArrow=none;endFill=0;" edge="1" parent="1" source="ZrKw8f5aBbxwtbPbl8hn-57">
          <mxGeometry relative="1" as="geometry">
            <mxPoint x="896" y="220" as="targetPoint" />
          </mxGeometry>
        </mxCell>
        <mxCell id="ZrKw8f5aBbxwtbPbl8hn-57" value="&lt;span style=&quot;font-weight: 700;&quot;&gt;Send email&lt;/span&gt;" style="text;html=1;align=center;verticalAlign=middle;whiteSpace=wrap;rounded=0;" vertex="1" parent="1">
          <mxGeometry x="760" y="170" width="60" height="30" as="geometry" />
        </mxCell>
        <mxCell id="ZrKw8f5aBbxwtbPbl8hn-59" value="" style="endArrow=none;html=1;rounded=0;" edge="1" parent="1" target="ZrKw8f5aBbxwtbPbl8hn-60">
          <mxGeometry width="50" height="50" relative="1" as="geometry">
            <mxPoint x="901" y="328" as="sourcePoint" />
            <mxPoint x="1020" y="290" as="targetPoint" />
          </mxGeometry>
        </mxCell>
        <mxCell id="ZrKw8f5aBbxwtbPbl8hn-60" value="Checked-out" style="text;html=1;align=center;verticalAlign=middle;whiteSpace=wrap;rounded=0;fontSize=7;" vertex="1" parent="1">
          <mxGeometry x="910" y="230" width="60" height="30" as="geometry" />
        </mxCell>
        <mxCell id="ZrKw8f5aBbxwtbPbl8hn-63" value="Returned" style="text;html=1;align=center;verticalAlign=middle;whiteSpace=wrap;rounded=0;fontSize=7;" vertex="1" parent="1">
          <mxGeometry x="990" y="323" width="60" height="30" as="geometry" />
        </mxCell>
        <mxCell id="ZrKw8f5aBbxwtbPbl8hn-64" value="Requested" style="text;html=1;align=center;verticalAlign=middle;whiteSpace=wrap;rounded=0;fontSize=7;" vertex="1" parent="1">
          <mxGeometry x="1020" y="200" width="60" height="30" as="geometry" />
        </mxCell>
        <mxCell id="ZrKw8f5aBbxwtbPbl8hn-65" value="" style="endArrow=none;html=1;rounded=0;" edge="1" parent="1" source="ZrKw8f5aBbxwtbPbl8hn-63">
          <mxGeometry width="50" height="50" relative="1" as="geometry">
            <mxPoint x="920" y="390" as="sourcePoint" />
            <mxPoint x="954" y="303" as="targetPoint" />
          </mxGeometry>
        </mxCell>
        <mxCell id="ZrKw8f5aBbxwtbPbl8hn-66" value="" style="endArrow=none;html=1;rounded=0;" edge="1" parent="1" target="ZrKw8f5aBbxwtbPbl8hn-64">
          <mxGeometry width="50" height="50" relative="1" as="geometry">
            <mxPoint x="1034" y="266" as="sourcePoint" />
            <mxPoint x="1030" y="230" as="targetPoint" />
          </mxGeometry>
        </mxCell>
      </root>
    </mxGraphModel>
  </diagram>
</mxfile>
